PathFileType  4	(X/Y/Z) C:\Users\antoi\Documents\MyRepositories\mobilecap\ResultsAnalysis
DataRate	CameraRate	NumFrames	NumMarkers	Units	OrigDataRate	OrigDataStartFrame	OrigNumFrames
100.0	100.0	4	51	mm	100.0	481	1280
Frame#	Time	r_knee			r_shank_antsup			r_ankle			r_calc			r_5meta			r_toe			L_knee			L_shank_antsup			L_ankle			L_calc			L_5meta			L_toe			r_sh2			r_sh3			r_sh4			L_sh2			L_sh3			r_thigh1			r_thigh2			r_thigh3			r_thigh4			r_thigh5			L_thigh1			L_thigh2			L_thigh3			L_thigh4			r.ASIS			r.PSIS			L.ASIS			L.PSIS			C7			R_Shoulder			L_Shoulder			R_Sternum			L_Sternum			R_humerus			R_elbow_med			R_elbow_lat			R_forearm			R_wrist_radius			R_wrist_ulna			L_humerus			L_elbow_med			L_elbow_lat			L_forearm			L_wrist_radius			L_wrist_ulna			R_HJC			L_HJC			R_HJC_reg			L_HJC_reg			
		X1	Y1	Z1	X2	Y2	Z2	X3	Y3	Z3	X4	Y4	Z4	X5	Y5	Z5	X6	Y6	Z6	X7	Y7	Z7	X8	Y8	Z8	X9	Y9	Z9	X10	Y10	Z10	X11	Y11	Z11	X12	Y12	Z12	X13	Y13	Z13	X14	Y14	Z14	X15	Y15	Z15	X16	Y16	Z16	X17	Y17	Z17	X18	Y18	Z18	X19	Y19	Z19	X20	Y20	Z20	X21	Y21	Z21	X22	Y22	Z22	X23	Y23	Z23	X24	Y24	Z24	X25	Y25	Z25	X26	Y26	Z26	X27	Y27	Z27	X28	Y28	Z28	X29	Y29	Z29	X30	Y30	Z30	X31	Y31	Z31	X32	Y32	Z32	X33	Y33	Z33	X34	Y34	Z34	X35	Y35	Z35	X36	Y36	Z36	X37	Y37	Z37	X38	Y38	Z38	X39	Y39	Z39	X40	Y40	Z40	X41	Y41	Z41	X42	Y42	Z42	X43	Y43	Z43	X44	Y44	Z44	X45	Y45	Z45	X46	Y46	Z46	X47	Y47	Z47	X48	Y48	Z48	X49	Y49	Z49	X50	Y50	Z50	X51	Y51	Z51	

481	4.80000000	-140.19548	433.43601	-328.48810	-117.48917	317.08847	-348.69558	-281.67174	89.66922	-384.38335	-333.44455	53.34576	-437.51599	-184.03260	38.39001	-334.91876	-142.63022	56.02300	-372.64169	-184.19783	462.86908	-775.87837	-142.75460	346.63186	-768.98892	-293.62339	95.91830	-807.66543	-337.48659	53.48858	-765.00036	-182.23918	36.39910	-851.84188	-137.60997	56.43665	-803.95637	-164.74261	215.53751	-369.94105	-173.66330	331.14752	-300.17523	-233.68049	238.89090	-328.95665	-204.07289	393.74065	-814.11570	-248.44898	281.30370	-837.42915	-235.86495	724.30214	-309.93071	-170.82867	639.58039	-308.51612	-199.31754	586.66893	-275.00540	-323.49828	658.67364	-285.40632	-252.17580	568.71058	-281.67776	-269.22044	732.87432	-699.62518	-191.45937	633.20171	-743.10430	-368.63341	681.14593	-715.65785	-283.75005	574.81582	-756.30880	-230.02363	793.89367	-363.48177	-376.34145	913.33489	-422.24631	-234.32977	801.86438	-606.92906	-379.21773	919.41612	-537.33661	-133.86987	1282.40200	-438.44561	-79.79085	1228.55112	-291.36499	-65.99763	1244.60616	-590.51011	-34.53550	1190.38810	-418.76288	-28.39755	1190.15544	-460.11722	-82.21270	1107.17055	-226.37521	-212.48379	931.34835	-219.05729	-142.98376	938.45067	-171.61902	-57.69297	937.31835	-263.30285	-6.28488	954.46743	-348.88697	7.53745	919.69569	-342.75500	-70.15458	1110.04394	-668.45498	-185.67889	940.32210	-689.35310	-130.92267	951.32386	-746.80870	-55.87012	948.33909	-665.93257	-7.77630	958.32860	-551.09826	11.43694	934.16241	-561.54494	-341.86430	768.96451	-386.74607	-343.16160	770.96324	-576.10875	-325.40612	762.10694	-396.93006	-329.41975	770.59048	-557.42942	
482	4.81000000	-142.02068	434.53002	-328.76722	-118.95572	318.18664	-348.89479	-281.75869	89.60811	-384.46700	-333.41243	53.35600	-437.53077	-184.02899	38.39058	-334.90778	-142.65518	56.05018	-372.62059	-185.61681	463.46427	-775.87737	-144.21250	347.35363	-768.88756	-293.76107	95.83179	-807.71041	-337.54248	53.51675	-765.08468	-182.23880	36.62690	-852.23902	-137.66996	56.47853	-804.00351	-165.60865	216.37311	-369.97062	-175.25139	331.93608	-300.52538	-234.68544	239.41495	-329.08415	-205.67492	394.12260	-813.78481	-249.64175	281.68759	-837.20126	-233.27540	726.95163	-310.54423	-169.64087	639.89763	-309.24361	-198.92805	588.09659	-276.33552	-322.01466	662.75819	-286.29590	-252.12228	571.51796	-282.58507	-266.03647	735.23290	-700.47822	-190.15891	634.02032	-744.21023	-366.30112	684.93896	-715.55121	-283.43570	576.91232	-756.20069	-227.15544	800.38679	-363.87300	-374.43500	917.93465	-423.15042	-230.56599	807.96660	-606.45581	-377.17226	923.91612	-538.48209	-138.09251	1291.48602	-438.85212	-83.91287	1238.15576	-291.29235	-69.90028	1254.89177	-590.95873	-36.59045	1201.11213	-418.51050	-31.48262	1200.65139	-460.53684	-87.16612	1116.91207	-225.81596	-218.39395	941.58165	-220.30827	-149.56439	947.97179	-171.89185	-62.80935	941.77767	-262.23595	-9.56994	955.16109	-347.46516	2.97590	920.43348	-339.81020	-74.52067	1120.22380	-669.88325	-191.47161	951.26055	-690.88205	-137.41700	962.32032	-748.67288	-61.41906	955.78301	-668.63249	-11.60832	960.57170	-554.06603	7.01531	936.48359	-565.83082	-338.60977	774.13445	-387.23996	-339.08384	775.77657	-576.61033	-321.67695	767.63675	-397.32471	-325.47032	775.92857	-557.26150	
483	4.82000000	-143.84711	435.61892	-329.13021	-120.49898	319.30370	-349.20282	-281.91199	90.02085	-383.89480	-333.42175	53.35891	-437.54456	-184.01536	38.39240	-334.90704	-142.64479	56.09272	-372.63982	-187.05471	463.99074	-775.71762	-145.71321	348.10000	-768.76701	-293.91471	95.78077	-807.74827	-337.57303	53.49978	-765.13866	-182.25479	36.65458	-852.38203	-137.73467	56.55015	-804.06923	-166.46346	217.17202	-370.21397	-176.89855	332.85690	-300.68653	-235.84150	239.93114	-329.47980	-207.27423	394.60276	-813.50581	-250.80259	281.93141	-836.92787	-230.45749	729.68376	-310.90528	-168.41568	641.40718	-309.67476	-198.48838	589.66589	-277.55377	-320.32169	666.70387	-287.28166	-251.94520	574.34544	-283.48454	-262.80075	737.51990	-701.22398	-188.84126	634.70574	-745.13831	-363.92885	688.55252	-715.13438	-283.11593	578.91525	-755.67848	-224.31485	806.97152	-364.05554	-372.19585	922.17464	-424.28154	-226.79829	813.98540	-605.26672	-375.21127	928.40452	-539.39734	-142.40429	1300.28011	-439.19021	-88.07892	1247.61686	-291.25887	-73.96899	1265.02359	-591.59958	-38.00877	1211.91454	-418.30963	-34.72338	1211.03942	-460.77047	-91.98156	1126.26679	-225.35758	-224.21832	951.47886	-221.58833	-156.05830	957.23287	-172.17684	-67.93735	946.21149	-261.12382	-13.06720	955.79710	-345.80764	-1.62344	921.07991	-336.91229	-78.86076	1130.31679	-671.29352	-197.12423	961.85786	-692.32323	-143.67110	973.16028	-750.49647	-66.90376	963.00486	-671.40752	-15.49179	962.69664	-557.55462	2.38423	938.51782	-570.10916	-335.31554	779.29237	-387.43902	-334.86114	780.42121	-576.81240	-317.46111	772.89636	-397.19277	-321.62473	781.49927	-556.18222	
484	4.83000000	-145.60250	436.60820	-329.69547	-122.12352	320.40267	-349.62961	-282.11497	90.75041	-382.88290	-333.46036	53.34939	-437.53765	-184.01128	38.38769	-334.91686	-142.64025	56.11269	-372.64555	-188.54861	464.37645	-775.27556	-147.16675	348.87418	-768.50728	-294.06713	95.78426	-807.86042	-337.57890	53.45012	-765.17182	-182.27910	36.58173	-852.37199	-137.78101	56.62116	-804.13758	-167.38247	217.87345	-370.55264	-178.58297	333.75345	-301.03551	-237.05312	240.43775	-329.81416	-208.95424	395.15234	-813.19419	-251.82614	282.25996	-836.93057	-227.59608	732.29961	-311.48248	-167.26090	643.63810	-309.94175	-198.03355	591.64913	-278.20714	-318.49361	670.58776	-288.31648	-251.66398	577.23932	-284.25661	-259.48777	739.70852	-701.89989	-187.55226	635.28196	-745.86144	-361.35718	692.27416	-714.77210	-282.79653	580.87645	-754.89937	-221.52949	813.66709	-363.90660	-370.26687	926.70778	-425.40546	-223.12879	820.01701	-604.63796	-373.20249	932.79989	-540.36115	-146.77719	1308.73487	-439.35032	-92.20938	1257.00630	-290.94189	-78.15420	1274.96298	-592.14648	-40.18313	1222.36867	-418.19207	-38.30792	1221.76866	-460.13449	-96.65009	1135.10373	-225.17195	-229.87813	961.02948	-222.99384	-162.54514	966.26445	-172.57280	-73.01136	950.62822	-260.03774	-16.63114	956.48990	-343.86501	-6.22778	921.64254	-334.17261	-83.26638	1140.21544	-672.64621	-202.59509	972.16303	-693.79746	-149.66476	983.79669	-752.37070	-72.28642	969.93743	-674.38569	-19.50787	964.69332	-561.25060	-2.33665	940.49342	-574.66257	-332.10592	784.59397	-387.64453	-330.74090	785.10554	-577.01610	-313.76290	778.31954	-397.05320	-317.81583	786.72897	-555.72036	
